<svg width="80" height="80" viewBox="0 0 80 80" fill="none" xmlns="http://www.w3.org/2000/svg">
<rect width="80" height="80" rx="40" fill="white"/>
<path fill-rule="evenodd" clip-rule="evenodd" d="M35.3125 20C32.1097 20 29.5115 22.603 29.5115 25.8201V28.7197H24.806C22.766 28.7197 20.973 29.7766 19.9394 31.3689C19.4995 32.0467 19.6873 32.9542 20.3598 33.4L34.521 42.7848C35.0428 43.131 35.6551 43.3158 36.2805 43.3157H43.7194C44.3455 43.3157 44.9574 43.1309 45.479 42.7848L59.6401 33.4C60.3127 32.9542 60.5005 32.0467 60.0605 31.3688C59.027 29.7765 57.234 28.7197 55.194 28.7197H50.5407V25.8201C50.5407 22.6029 47.9425 20 44.7396 20H35.3125ZM32.4411 28.7197H47.6111V25.8201C47.6111 24.2315 46.3283 22.9421 44.7396 22.9421H35.3125C33.724 22.9421 32.4411 24.2315 32.4411 25.8201V28.7197ZM47.2585 45.4942L47.2607 45.4928L58.7284 37.8929C58.9492 37.7466 59.2054 37.6631 59.4696 37.6512C59.7339 37.6394 59.9964 37.6996 60.2294 37.8255C60.4623 37.9514 60.657 38.1383 60.7926 38.3664C60.9283 38.5944 61 38.8551 61 39.1208V54.1693C61 57.3904 58.4015 60 55.194 60H24.806C21.5985 60 19 57.3904 19 54.1693V39.1208C18.9999 38.8551 19.0715 38.5943 19.2072 38.3662C19.3429 38.1381 19.5375 37.9512 19.7705 37.8253C20.0035 37.6993 20.2661 37.6392 20.5304 37.6511C20.7947 37.663 21.0508 37.7466 21.2716 37.893L32.7412 45.4941C33.7913 46.1905 35.022 46.5617 36.2805 46.5615H43.7194C44.9779 46.5617 46.2084 46.1906 47.2585 45.4942ZM23.894 57.3863L26.5324 54.7366C26.6285 54.6401 26.7843 54.6401 26.8804 54.7366C26.9765 54.8331 26.9765 54.9896 26.8804 55.0861L24.242 57.7358C24.1459 57.8323 23.9901 57.8323 23.894 57.7358C23.7979 57.6393 23.7979 57.4828 23.894 57.3863ZM26.0531 57.3863L28.6915 54.7366C28.7876 54.6401 28.9434 54.6401 29.0395 54.7366C29.1355 54.8331 29.1355 54.9896 29.0395 55.0861L26.401 57.7358C26.305 57.8323 26.1492 57.8323 26.0531 57.7358C25.957 57.6393 25.957 57.4828 26.0531 57.3863ZM30.9854 54.7366L28.3469 57.3863C28.2509 57.4828 28.2509 57.6393 28.3469 57.7358C28.443 57.8323 28.5988 57.8323 28.6949 57.7358L31.3333 55.0861C31.4294 54.9896 31.4294 54.8331 31.3333 54.7366C31.2372 54.6401 31.0814 54.6401 30.9854 54.7366Z" fill="#FFB084"/>
</svg>
