<svg width="80" height="80" viewBox="0 0 80 80" fill="none" xmlns="http://www.w3.org/2000/svg">
<rect width="80" height="80" rx="40" fill="white"/>
<path fill-rule="evenodd" clip-rule="evenodd" d="M21 27.267C21 28.0768 21.6565 28.7335 22.4664 28.7335H57.5335C58.3435 28.7335 59 28.0768 59 27.267V26.3771C59 23.4074 56.5926 21 53.6229 21H26.377C23.4073 21 21 23.4074 21 26.3771V27.267ZM59 32.3163C59 31.5063 58.3435 30.8498 57.5335 30.8498H22.4664C21.6565 30.8498 21 31.5063 21 32.3163V53.623C21 56.5927 23.4073 59 26.377 59H53.6229C56.5926 59 59 56.5927 59 53.623V32.3163ZM31.6091 24.6666C31.4648 25.2051 31.799 25.7626 32.3555 25.9117C32.9121 26.0609 33.4802 25.7452 33.6245 25.2066C33.7688 24.668 33.4347 24.1106 32.8781 23.9614C32.3216 23.8123 31.7534 24.128 31.6091 24.6666ZM55.091 25.7125C54.9976 26.0612 54.6905 26.2819 54.4052 26.2055C54.1199 26.129 53.9643 25.7843 54.0577 25.4356C54.1512 25.0869 54.4582 24.8662 54.7436 24.9427C55.0289 25.0191 55.1845 25.3638 55.091 25.7125ZM24.4463 57.0481L26.9874 54.5069C27.0799 54.4144 27.2299 54.4144 27.3224 54.5069L27.3225 54.507C27.415 54.5995 27.415 54.7495 27.3225 54.842L24.7814 57.3831C24.6889 57.4757 24.5389 57.4757 24.4463 57.3831L24.4463 57.3831C24.3538 57.2906 24.3538 57.1406 24.4463 57.0481ZM29.0666 54.5069L26.5255 57.0481C26.433 57.1406 26.433 57.2906 26.5255 57.3831L26.5256 57.3831C26.6181 57.4757 26.7681 57.4757 26.8606 57.3831L29.4017 54.842C29.4942 54.7495 29.4942 54.5995 29.4017 54.507L29.4016 54.5069C29.3091 54.4144 29.1591 54.4144 29.0666 54.5069ZM28.7346 57.0481L31.2757 54.5069C31.3682 54.4144 31.5182 54.4144 31.6107 54.5069L31.6108 54.507C31.7033 54.5995 31.7033 54.7495 31.6108 54.842L29.0697 57.3831C28.9772 57.4757 28.8272 57.4757 28.7346 57.3831L28.7346 57.3831C28.6421 57.2906 28.6421 57.1406 28.7346 57.0481ZM41.8832 36.0089C42.6219 36.2142 43.0544 36.9794 42.8491 37.7181L39.6015 49.4073C39.3963 50.146 38.631 50.5785 37.8923 50.3732C37.1536 50.168 36.7211 49.4027 36.9263 48.664L40.174 36.9749C40.3792 36.2362 41.1445 35.8037 41.8832 36.0089ZM35.1366 38.3127C35.6788 38.8548 35.6788 39.7338 35.1366 40.276L32.2219 43.1907L35.1367 46.1055C35.6788 46.6476 35.6788 47.5266 35.1366 48.0688C34.5945 48.6109 33.7155 48.6109 33.1733 48.0687L29.277 44.1723C28.7349 43.6302 28.7349 42.7512 29.277 42.209L33.1734 38.3127C33.7155 37.7705 34.5945 37.7705 35.1366 38.3127ZM44.8626 38.3127C45.4048 37.7705 46.2838 37.7705 46.8259 38.3127L50.7223 42.209C51.2644 42.7512 51.2644 43.6302 50.7223 44.1723L46.826 48.0687C46.2838 48.6109 45.4048 48.6109 44.8627 48.0688C44.3205 47.5266 44.3205 46.6476 44.8626 46.1055L47.7774 43.1907L44.8627 40.276C44.3205 39.7338 44.3205 38.8548 44.8626 38.3127Z" fill="#FFB084"/>
</svg>
