<svg width="80" height="80" viewBox="0 0 80 80" fill="none" xmlns="http://www.w3.org/2000/svg">
<rect width="80" height="80" rx="40" fill="white"/>
<path fill-rule="evenodd" clip-rule="evenodd" d="M25.7378 20H25.7379C26.3479 20 26.8423 20.4982 26.8423 21.1128V23.2476H32.3123V21.1128C32.3123 20.4982 32.8068 20 33.4168 20H33.4169C34.0268 20 34.5213 20.4982 34.5213 21.1128V23.2476H39.9913V21.1128C39.9913 20.4982 40.4858 20 41.0957 20H41.0958C41.7058 20 42.2003 20.4982 42.2003 21.1128V23.2476H47.6703V21.1128C47.6703 20.4982 48.1648 20 48.7747 20H48.7748C49.3848 20 49.8793 20.4982 49.8793 21.1128V23.2476H50.6161C53.3925 23.2476 55.6418 25.5138 55.6418 28.3111V29.0478C55.6418 29.7307 55.0924 30.2842 54.4147 30.2842H20.2272C19.5494 30.2842 19 29.7307 19 29.0478V28.3111C19 25.5138 21.2493 23.2476 24.0257 23.2476H24.6333V21.1128C24.6333 20.4982 25.1278 20 25.7378 20ZM20.2272 32.7519C19.5494 32.7519 19 33.3055 19 33.9883V53.1877C19 55.985 21.2493 58.2512 24.0257 58.2512H46.9564C44.077 54.7929 44.2511 49.6293 47.4789 46.3773C49.6933 44.1463 52.8006 43.3632 55.6418 44.0282V33.9883C55.6418 33.3055 55.0924 32.7519 54.4147 32.7519H20.2272ZM24.308 37.5539H26.3856C27.2956 37.5539 28.0332 38.2972 28.0332 39.214V41.3072C28.0332 42.224 27.2956 42.9672 26.3856 42.9672H24.308C23.398 42.9672 22.6603 42.224 22.6603 41.3072V39.214C22.6603 38.2972 23.398 37.5539 24.308 37.5539ZM24.308 45.9519H26.3856C27.2956 45.9519 28.0332 46.6951 28.0332 47.612V49.7051C28.0332 50.622 27.2956 51.3652 26.3856 51.3652H24.308C23.398 51.3652 22.6603 50.622 22.6603 49.7051V47.612C22.6603 46.6951 23.398 45.9519 24.308 45.9519ZM34.3855 37.5539H32.2198C31.3099 37.5539 30.5722 38.2972 30.5722 39.214V41.3072C30.5722 42.224 31.3099 42.9672 32.2198 42.9672H34.3855C35.2955 42.9672 36.0331 42.224 36.0331 41.3072V39.214C36.0331 38.2972 35.2955 37.5539 34.3855 37.5539ZM32.2198 45.9519H34.3855C35.2955 45.9519 36.0331 46.6951 36.0331 47.612V49.7051C36.0331 50.622 35.2955 51.3652 34.3855 51.3652H32.2198C31.3099 51.3652 30.5722 50.622 30.5722 49.7051V47.612C30.5722 46.6951 31.3099 45.9519 32.2198 45.9519ZM42.2973 37.5539H40.2198C39.3098 37.5539 38.5721 38.2972 38.5721 39.214V41.3072C38.5721 42.224 39.3098 42.9672 40.2198 42.9672H42.2973C43.2073 42.9672 43.945 42.224 43.945 41.3072V39.214C43.945 38.2972 43.2073 37.5539 42.2973 37.5539ZM40.2198 45.9519H42.2973C43.2073 45.9519 43.945 46.6951 43.945 47.612V49.7051C43.945 50.622 43.2073 51.3652 42.2973 51.3652H40.2198C39.3098 51.3652 38.5721 50.622 38.5721 49.7051V47.612C38.5721 46.6951 39.3098 45.9519 40.2198 45.9519ZM50.2091 37.5539H48.1316C47.2216 37.5539 46.4839 38.2972 46.4839 39.214V41.3072C46.4839 42.224 47.2216 42.9672 48.1316 42.9672H50.2091C51.1191 42.9672 51.8568 42.224 51.8568 41.3072V39.214C51.8568 38.2972 51.1191 37.5539 50.2091 37.5539ZM48.4641 47.3699C51.3319 44.4806 55.9815 44.4806 58.8492 47.3699C61.7169 50.2592 61.7169 54.9437 58.8492 57.833C55.9815 60.7223 51.3319 60.7223 48.4641 57.833C45.5964 54.9437 45.5964 50.2592 48.4641 47.3699ZM53.6703 48.4856C53.9505 48.4856 54.1776 48.7144 54.1776 48.9967V52.8541L57.1322 54.6298C57.3728 54.7744 57.4515 55.0881 57.308 55.3306C57.1645 55.573 56.853 55.6523 56.6124 55.5077L53.4104 53.5833C53.2569 53.4911 53.163 53.3244 53.163 53.1444V48.9967C53.163 48.7144 53.3901 48.4856 53.6703 48.4856Z" fill="#FFB084"/>
</svg>
